<?xml version="1.0" encoding="utf-8"?>
<!-- Generator: Adobe Illustrator 16.0.0, SVG Export Plug-In . SVG Version: 6.00 Build 0)  -->
<!DOCTYPE svg PUBLIC "-//W3C//DTD SVG 1.1//EN" "http://www.w3.org/Graphics/SVG/1.1/DTD/svg11.dtd">
<svg version="1.1" id="Layer_1" xmlns="http://www.w3.org/2000/svg" xmlns:xlink="http://www.w3.org/1999/xlink" x="0px" y="0px"
	 width="24px" height="24px" viewBox="0 0 24 24" enable-background="new 0 0 24 24" xml:space="preserve">
<g>
	<path fill="none" d="M11.668,13.086c0-0.003,0.002-0.005,0.004-0.006c-0.001,0.001-0.002,0.003-0.004,0.004
		C11.668,13.084,11.668,13.084,11.668,13.086z"/>
	<path fill="none" d="M9.925,13.442L9.925,13.442c0.031,0.08,0.075,0.172,0.118,0.252h0.001C10.002,13.61,9.963,13.528,9.925,13.442
		z"/>
	<path d="M10.044,13.694c0.042,0.082,0.086,0.156,0.114,0.203C10.118,13.831,10.081,13.763,10.044,13.694L10.044,13.694z"/>
	<path d="M10.188,13.944L10.188,13.944c-0.006-0.012-0.014-0.021-0.02-0.035C10.179,13.933,10.188,13.944,10.188,13.944z"/>
	<path fill="#CCCCCC" d="M15.718,8.195h-2.302c-0.197,0-0.393,0.016-0.583,0.045c-0.041,0.006-0.083,0.014-0.124,0.022
		c0.706,0.406,1.288,1.004,1.669,1.723h0.188h1.269c1.11,0,2.015,0.902,2.015,2.015c0,1.113-0.9,2.017-2.015,2.017h-1.446h-0.298
		H13.8l0,0h-0.481c-0.502,0-0.959-0.186-1.313-0.49v0.002c0-0.002,0-0.002,0-0.002c-0.075-0.062-0.135-0.12-0.184-0.172
		c-0.105-0.117-0.153-0.198-0.153-0.198c0-0.001,0-0.001,0-0.001l0,0c-0.228-0.328-0.363-0.725-0.363-1.153
		c0-0.417,0.127-0.805,0.345-1.126c0.006-0.01,0.012-0.018,0.018-0.027c-0.264-0.224-0.604-0.359-0.977-0.359H9.925
		c-0.201,0.463-0.314,0.975-0.314,1.512c0,0.538,0.112,1.05,0.313,1.515c0.038,0.084,0.077,0.168,0.12,0.25
		c0.037,0.068,0.074,0.137,0.114,0.203c0.002,0.004,0.006,0.008,0.009,0.012c0.006,0.015,0.014,0.022,0.021,0.035
		c0.424,0.68,1.056,1.213,1.806,1.517c0.092,0.038,0.186,0.071,0.281,0.104c0.004,0,0.011,0.002,0.016,0.004
		c0.017,0.006,0.033,0.01,0.049,0.014c0.041,0.013,0.082,0.023,0.123,0.035c0.002,0,0.002,0,0.003,0
		c0.302,0.078,0.622,0.119,0.949,0.119h2.3c2.102,0,3.805-1.703,3.805-3.805C19.521,9.899,17.818,8.195,15.718,8.195z"/>
	<path fill="#CCCCCC" d="M8.286,15.806h2.299c0.199,0,0.394-0.017,0.584-0.045c0.041-0.008,0.083-0.016,0.124-0.022
		c-0.706-0.404-1.288-1.005-1.669-1.724H9.436H8.169c-1.112,0-2.014-0.9-2.014-2.015c0-1.113,0.902-2.015,2.014-2.015h1.446h0.297
		h0.29h0.001h0.48c0.503,0,0.961,0.185,1.314,0.487l0,0l0,0c0.076,0.063,0.136,0.123,0.184,0.175
		c0.107,0.117,0.155,0.198,0.155,0.198l0,0l0,0c0.227,0.327,0.363,0.724,0.363,1.152c0,0.418-0.129,0.805-0.343,1.127
		c-0.008,0.009-0.014,0.018-0.019,0.025c0.263,0.226,0.603,0.359,0.976,0.359h0.767c0.2-0.463,0.313-0.976,0.313-1.513
		c0-0.538-0.113-1.049-0.313-1.514c-0.037-0.084-0.078-0.169-0.119-0.25c-0.038-0.068-0.074-0.137-0.114-0.203
		c-0.003-0.003-0.006-0.008-0.008-0.014c-0.008-0.013-0.016-0.023-0.021-0.034c-0.424-0.678-1.058-1.212-1.807-1.515
		c-0.092-0.037-0.186-0.071-0.281-0.102c-0.006-0.001-0.011-0.003-0.016-0.005c-0.016-0.005-0.032-0.008-0.048-0.014
		c-0.041-0.012-0.082-0.024-0.125-0.034C11.537,8.31,11.536,8.31,11.536,8.31c-0.303-0.078-0.623-0.119-0.952-0.119H8.286
		c-2.102,0-3.805,1.703-3.805,3.804C4.481,14.103,6.184,15.806,8.286,15.806z"/>
	<path d="M10.166,13.91c-0.002-0.004-0.005-0.009-0.008-0.013C10.161,13.901,10.164,13.906,10.166,13.91z"/>
	<path d="M12.004,13.458c0,0,0.002-0.002,0.002-0.003C12.006,13.455,12.004,13.456,12.004,13.458L12.004,13.458z"/>
	<polygon points="12.004,13.458 12.004,13.458 12.004,13.458 	"/>
</g>
</svg>
